<svg width="368" height="368" viewBox="0 0 368 368" fill="none" xmlns="http://www.w3.org/2000/svg">
<path fill-rule="evenodd" clip-rule="evenodd" d="M0 184.001C0 82.3801 82.3782 0 184 0C285.622 0 368 82.3801 368 184.001C368 285.62 285.622 368 184 368C82.3782 368 0 285.62 0 184.001Z" fill="black"/>
<path d="M288.908 236.859L253.911 273.48C253.15 274.276 252.23 274.91 251.207 275.344C250.184 275.777 249.081 276.001 247.966 276H82.0629C81.2713 276 80.4969 275.774 79.835 275.351C79.173 274.927 78.6522 274.324 78.3367 273.616C78.0212 272.908 77.9246 272.125 78.0589 271.363C78.1931 270.602 78.5523 269.896 79.0924 269.331L114.116 232.71C114.875 231.917 115.792 231.284 116.812 230.85C117.831 230.417 118.931 230.192 120.043 230.19H285.937C286.729 230.19 287.503 230.416 288.165 230.84C288.826 231.263 289.347 231.866 289.664 232.575C289.979 233.283 290.075 234.066 289.941 234.827C289.807 235.588 289.448 236.295 288.908 236.859ZM253.911 163.115C253.15 162.319 252.23 161.685 251.207 161.251C250.184 160.818 249.081 160.595 247.966 160.595H82.0629C81.2713 160.595 80.4969 160.821 79.835 161.245C79.173 161.668 78.6522 162.271 78.3367 162.979C78.0212 163.688 77.9246 164.471 78.0589 165.232C78.1931 165.993 78.5523 166.699 79.0924 167.264L114.116 203.885C114.875 204.679 115.792 205.312 116.812 205.745C117.831 206.178 118.931 206.403 120.043 206.405H285.937C286.729 206.405 287.503 206.179 288.165 205.755C288.826 205.332 289.347 204.729 289.664 204.021C289.979 203.312 290.075 202.529 289.941 201.768C289.807 201.007 289.448 200.301 288.908 199.736L253.911 163.115ZM82.0629 136.81H247.966C249.081 136.81 250.184 136.587 251.207 136.153C252.23 135.72 253.15 135.085 253.911 134.29L288.908 97.6688C289.448 97.1041 289.807 96.3978 289.941 95.6366C290.075 94.8754 289.979 94.0925 289.664 93.3841C289.347 92.6758 288.826 92.0728 288.165 91.6492C287.503 91.2257 286.729 91 285.937 91H120.043C118.931 91.0018 117.831 91.2264 116.812 91.6598C115.792 92.0932 114.875 92.7261 114.116 93.5195L79.1014 130.141C78.5619 130.705 78.2028 131.411 78.0683 132.171C77.9337 132.931 78.0295 133.713 78.3439 134.421C78.6584 135.129 79.1777 135.732 79.8383 136.157C80.4989 136.581 81.2721 136.808 82.0629 136.81Z" fill="url(#paint0_linear_3582_9398)"/>
<defs>
<linearGradient id="paint0_linear_3582_9398" x1="95.8953" y1="280.409" x2="265.098" y2="84.9192" gradientUnits="userSpaceOnUse">
<stop offset="0.08" stop-color="#9945FF"/>
<stop offset="0.3" stop-color="#8752F3"/>
<stop offset="0.5" stop-color="#5497D5"/>
<stop offset="0.6" stop-color="#43B4CA"/>
<stop offset="0.72" stop-color="#28E0B9"/>
<stop offset="0.97" stop-color="#19FB9B"/>
</linearGradient>
</defs>
</svg>
