<svg width="22" height="14" viewBox="0 0 22 14" fill="none" xmlns="http://www.w3.org/2000/svg">
<path d="M0.257812 2.7611C0.257812 1.49186 1.19717 0.462891 2.35592 0.462891C3.21158 0.462891 3.9815 1.03208 4.30166 1.90127L6.72704 8.48663C6.74261 8.52887 6.78002 8.5565 6.82163 8.5565C6.86318 8.5565 6.90059 8.52887 6.9161 8.48663L9.44957 1.60796C9.70445 0.916011 10.3174 0.462891 10.9986 0.462891H20.4834C21.177 0.462891 21.7393 1.07882 21.7393 1.83863C21.7393 2.59844 21.177 3.21437 20.4834 3.21437H15.2023C15.1689 3.21437 15.1417 3.2441 15.1417 3.28073C15.1417 3.3002 15.1496 3.31865 15.1631 3.33131L17.5498 5.55293C17.9363 5.91266 18.1591 6.44015 18.1591 6.9956C18.1591 7.5551 17.9332 8.08589 17.542 8.44562L15.1266 10.6669C15.1129 10.6795 15.105 10.698 15.105 10.7176C15.105 10.738 15.1134 10.7562 15.1266 10.7683C15.1371 10.778 15.1506 10.7838 15.1654 10.7838H20.4834C21.177 10.7838 21.7393 11.3997 21.7393 12.1595C21.7393 12.9193 21.177 13.5353 20.4834 13.5353H13.1901C11.9797 13.5353 10.9986 12.4605 10.9986 11.1347C10.9986 10.437 11.2757 9.77384 11.7577 9.31787L14.0892 7.11236C14.1193 7.08389 14.1365 7.04258 14.1365 6.99908C14.1365 6.95558 14.1193 6.91421 14.0892 6.8858L10.9986 3.96218L10.5249 5.50547L8.02397 12.5519C7.83134 13.0947 7.35416 13.4523 6.8225 13.4523C6.28994 13.4523 5.81216 13.0935 5.6201 12.5494L3.13265 5.50127C3.12401 5.47685 3.10262 5.4608 3.07871 5.4608C3.04676 5.4608 3.0209 5.48912 3.0209 5.52407V12.0219C3.0209 12.8577 2.40239 13.5353 1.63935 13.5353C0.876367 13.5353 0.257812 12.8577 0.257812 12.0219V2.7611Z" fill="white"/>
</svg>
